<?xml version="1.0" encoding="UTF-8" standalone="no"?>
<svg
   width="512.55457"
   height="464.26477"
   viewBox="0 0 135.6134 122.83671"
   version="1.1"
   id="svg41"
   sodipodi:docname="logo-linkedin.svg"
   xml:space="preserve"
   inkscape:version="1.2 (56b05e47e7, 2022-06-09, custom)"
   xmlns:inkscape="http://www.inkscape.org/namespaces/inkscape"
   xmlns:sodipodi="http://sodipodi.sourceforge.net/DTD/sodipodi-0.dtd"
   xmlns="http://www.w3.org/2000/svg"
   xmlns:svg="http://www.w3.org/2000/svg"><defs
     id="defs45" /><sodipodi:namedview
     id="namedview43"
     pagecolor="#ffffff"
     bordercolor="#666666"
     borderopacity="1.0"
     inkscape:showpageshadow="2"
     inkscape:pageopacity="0.0"
     inkscape:pagecheckerboard="0"
     inkscape:deskcolor="#d1d1d1"
     showgrid="false"
     inkscape:zoom="1.6756755"
     inkscape:cx="254.22583"
     inkscape:cy="236.62099"
     inkscape:window-width="1920"
     inkscape:window-height="1016"
     inkscape:window-x="0"
     inkscape:window-y="27"
     inkscape:window-maximized="1"
     inkscape:current-layer="svg41" /><path
     id="path330"
     style="fill:#000000;fill-opacity:1;stroke:none;stroke-width:0.370434;stroke-linecap:butt;stroke-linejoin:miter;stroke-dasharray:none;stroke-opacity:1"
     d="M 66.096767,7.0064711e-6 C 44.668855,0.00419551 26.983962,1.8850644 23.769041,2.0278092 13.218837,2.5458339 6.2046725,-3.1376116 3.4204784,19.229129 0.63628423,41.595866 -1.187101,91.094769 0.90648113,98.55434 c 2.09358207,7.45957 -2.11315133,8.86788 4.96179387,11.8293 29.399048,12.30576 76.410991,16.17911 114.833715,8.50624 13.89359,-2.77449 11.88369,-10.31537 12.19612,-14.6184 5.10543,-70.312283 2.14673,-67.491046 -1.79664,-87.786423 C 130.3131,12.427544 123.21819,6.4182178 117.84126,5.0969154 101.69322,1.1287635 82.762924,-0.00325079 66.096767,7.0064711e-6 Z M 46.589821,6.1951951 C 51.752583,6.1574331 52.206993,9.672058 52.922836,13.899975 53.857814,19.422153 48.772174,27.981868 36.117637,28.46412 23.463099,28.946377 24.001706,8.540432 40.382152,7.3102964 42.987721,6.5515292 45.009384,6.2067549 46.589821,6.1951951 Z M 80.027665,40.873489 c 0,0 -0.08535,10.794301 0.688055,15.175145 3.529332,-6.732916 11.714265,-11.165862 18.157432,-11.919918 6.443168,-0.754057 20.181918,10.943736 21.446838,17.49651 1.26492,6.552776 0.36109,11.322316 -1.41247,26.941499 -5.2128,0.57816 -10.90618,1.71755 -16.42643,3.951961 1.66811,-12.363475 -1.03703,-33.065874 -5.755663,-33.229475 -8.787184,-0.304665 -18.198281,24.693486 -19.109201,36.87214 -5.887195,2.011055 -10.315898,-0.32126 -18.035322,1.02894 -2.346702,-12.937092 1.861513,-29.998975 2.772271,-53.177154 6.125284,-1.551172 12.050469,-2.603469 17.67449,-3.139648 z m -48.36121,4.660092 c 4.59898,0.02596 11.019743,0.508705 15.588628,0.818828 3.994845,26.454361 -3.094426,38.451242 -2.978487,48.329738 -4.425994,-0.499336 -12.803306,2.765803 -20.286162,0.312011 4.16942,-10.382835 -1.394333,-38.709638 3.820647,-49.310811 0.992115,-0.11609 2.32238,-0.15842 3.855374,-0.149766 z"
     sodipodi:nodetypes="scsscscsssssscsccssccsccccsccccs" /></svg>
