<?xml version="1.0" encoding="UTF-8" standalone="no"?>
<svg
   xmlns:dc="http://purl.org/dc/elements/1.1/"
   xmlns:cc="http://creativecommons.org/ns#"
   xmlns:rdf="http://www.w3.org/1999/02/22-rdf-syntax-ns#"
   xmlns:svg="http://www.w3.org/2000/svg"
   xmlns="http://www.w3.org/2000/svg"
   width="514.50885"
   height="485.17746"
   viewBox="0 0 136.13047 128.36986">
  <path
     style="fill:none;stroke:#000000;stroke-width:5;stroke-linecap:round;stroke-linejoin:round;stroke-miterlimit:4;stroke-dasharray:none;stroke-opacity:1"
     d="M 64.599528,125.74707 C 50.065678,127.29735 23.517178,112.7635 16.540928,105.20589 9.5646781,97.648288 1.6195081,71.099783 2.5884281,60.441625 7.3955281,21.55472 38.374578,3.0433766 71.769568,2.5 c 25.77336,0 63.336322,11.86405 61.817322,36.819093 -2.71298,44.57048 -25.96715,77.707667 -40.694792,77.707667" />
  <path
     style="fill:none;stroke:#000000;stroke-width:5;stroke-linecap:round;stroke-linejoin:round;stroke-miterlimit:4;stroke-dasharray:none;stroke-opacity:1"
     d="m 63.049248,120.90246 c 0,-5.81354 0.58136,-7.55761 0,-12.01465 -7.5576,4.65083 -15.89034,4.45704 -20.1536,-1.3565 -4.26327,-5.81354 -10.27059,-12.208438 -17.63441,-12.402224 -7.36382,-0.193784 -6.3949,-6.588677 -0.96893,-6.782464 10.92943,-0.390341 15.11521,0 18.40955,4.263263 3.29434,4.263266 11.23952,7.945175 19.37847,6.588681 -1.55028,-4.263264 -1.74406,-11.820867 0,-16.665483 -7.5576,2.325415 -21.89767,-1.937848 -22.86659,-10.851944 -0.96893,-8.914096 -3.68191,-19.378471 2.13163,-27.711213 -3.29434,-4.263264 -5.61976,-8.914096 -6.20111,-14.340068 6.78246,-2.131632 14.34007,-1.550278 18.21576,5.813542 7.94517,-2.712987 24.99823,-4.844618 37.01288,-2.131632 -0.38757,-5.619757 12.014652,-14.146284 15.115202,-13.758714 3.10056,0.387569 3.29435,19.766039 -2.71298,21.510101 5.0384,6.782464 9.10788,14.340068 7.75139,24.223089 -1.3565,9.883019 -15.890352,18.990901 -20.541182,17.053053 5.03841,10.076803 8.72031,33.330973 6.00732,40.888573" />
</svg>
