<?xml version="1.0" encoding="UTF-8"?>
<svg xmlns="http://www.w3.org/2000/svg" width="686.875" height="735.83337" viewBox="0 0 515.15625 551.87503"><g transform="translate(-103.59375,-264.09375)"><path fill="rgba(0,0,0,1)" d="m 420.21875,264.09375 0,127.90625 c 13.63973,6.78504 25.63307,15.55789 36,26.34375 12.04033,12.52838 21.49954,27.01242 28.375,43.46875 6.87464,16.45693 10.31207,34.27456 10.3125,53.4375 -4.1e-4,24.57648 -6.38119,48.28085 -19.15625,71.125 -12.77584,22.84453 -31.18392,40.16805 -55.25,51.96875 l 0,-64.125 -119.40625,0 0,64.125 C 278.49658,627.0379 260.44752,610.32855 246.9375,588.21875 233.42715,566.1093 226.6561,541.79077 226.65625,515.25 c -1.5e-4,-19.16292 3.4373,-37.10814 10.3125,-53.8125 6.87489,-16.70375 16.3341,-31.1878 28.375,-43.46875 C 275.69821,407.40811 287.69196,398.75202 301.3125,392 l 0,-127.875 c -13.93119,3.29468 -27.51731,7.74894 -40.75,13.4375 -31.44397,13.51816 -58.72083,31.81492 -81.8125,54.90625 -23.09187,23.0922 -41.39611,50.36905 -54.90625,81.8125 -13.51023,31.44414 -20.25003,64.8466 -20.25,100.21875 -2e-5,29.97456 4.89721,58.47229 14.71875,85.5 9.82146,27.02803 23.58748,51.4816 41.28125,73.34375 17.69361,21.86229 38.58219,40.54931 62.65625,56.03125 24.07378,15.48201 50.3537,26.63244 78.84375,33.5 l 0,53.09375 119.40625,0 0,-53.09375 c 28.00967,-5.8929 54.17825,-16.68431 78.5,-32.40625 24.32091,-15.72187 45.31332,-34.6403 63,-56.75 17.68571,-22.10953 31.55557,-46.79457 41.625,-74.0625 10.06839,-27.26762 15.12445,-55.66152 15.125,-85.15625 -5.4e-4,-35.37214 -6.77157,-68.77462 -20.28125,-100.21875 -13.5107,-31.44344 -31.94251,-58.7203 -55.28125,-81.8125 -23.33964,-23.09134 -50.71285,-41.38809 -82.15625,-54.90625 -13.25145,-5.69652 -26.86346,-10.17281 -40.8125,-13.46875 z "/></g></svg>